<?xml version="1.0" encoding="UTF-8"?>
<svg id="Layer_2" data-name="Layer 2" xmlns="http://www.w3.org/2000/svg" viewBox="0 0 113.55 128.5">
  <defs>
    <style>
      .cls-1 {
        fill: #fff;
      }
    </style>
  </defs>
  <g id="Layer_1-2" data-name="Layer 1">
    <path class="cls-1" d="M70.83,1.61l-.05,2.17c-2.38.45-4.19,1.31-5.43,2.57-1.79,1.87-3.4,4.77-4.83,8.68l-24.85,67.07-1.82-.04L10.36,13.01c-1.2-3.54-2.06-5.71-2.56-6.51-.79-1.23-1.78-2.2-2.97-2.91S2.03,2.41,0,2.17L.05,0l27.31.62-.05,2.17c-3.1.28-5.12.86-6.06,1.74s-1.43,2.02-1.46,3.42c-.04,1.95.64,5.02,2.06,9.19l15.95,46.96,16.82-45.63c1.65-4.5,2.49-7.62,2.53-9.38.03-1.13-.43-2.23-1.36-3.28s-2.52-1.83-4.78-2.31c-.16-.04-.44-.11-.83-.19l.05-2.17,20.6.47Z"/>
    <path class="cls-1" d="M105.6,36.41c.12-.24-1.49-1.09-4.13-1.88-5.83-1.83-14.78-1.99-18.66,3.68-9.15,14.5,19.15,31.14,22.31,49.66,4.75,19.91-16.06,35.91-34.54,34.48-11.64-.31-21.03-8.48-27.04-17.09,2.43,8.2,12.76,18.63,21.57,21.37,13.6,4.76,30.12.24,39.65-10.68,12.61-14.02,11.18-35.04-1.48-48.86-3.03-3.59-6.51-6.97-9.61-10.43-3.08-3.6-6.06-6.76-6.89-11.15-.84-4.74,3.28-8.71,8.26-9.3,2.47-.78,9.83.66,10.52.22v-.02Z"/>
    <path class="cls-1" d="M74.18,39.43c2.61-3.82,7.52-5.03,8.66-5.26-11.2,4.91-4.35,20.4,9.71,35.49,15.47,16.61,12.34,50.81-22.36,47.88,16.67,1.22,42.3-19.89,14.7-50.44,0,0-10.15-11.2-10.84-15.17l-5.87,22.06-5.88-.05-5.28-27.89-12.31,36.16h-6.42l15.69-42.78h5.3s5.29,28.39,5.29,28.39c3.5-9.46,6.84-24.34,9.61-28.39Z"/>
  </g>
</svg>