<?xml version="1.0" encoding="UTF-8"?>
<svg id="Layer_2" xmlns="http://www.w3.org/2000/svg" version="1.1" viewBox="0 0 113.6 128.5">
  <!-- Generator: Adobe Illustrator 30.0.0, SVG Export Plug-In . SVG Version: 2.1.1 Build 123)  -->
  <defs>
    <style>
      .st0 {
        fill: #6c3375;
      }

      .st1 {
        fill: #fff;
      }
    </style>
  </defs>
  <g id="Layer_1-2">
    <path class="st1" d="M204.4,1.6v2.2c-2.4.4-4.2,1.3-5.5,2.6-1.8,1.9-3.4,4.8-4.8,8.7l-24.8,67.1h-1.8s-23.5-69.1-23.5-69.1c-1.2-3.5-2.1-5.7-2.6-6.5-.8-1.2-1.8-2.2-3-2.9s-2.8-1.2-4.8-1.4V0c0,0,27.4.6,27.4.6v2.2c-3.1.3-5.2.9-6.1,1.7s-1.4,2-1.5,3.4c0,1.9.6,5,2.1,9.2l15.9,47,16.8-45.6c1.7-4.5,2.5-7.6,2.5-9.4,0-1.1-.4-2.2-1.4-3.3s-2.5-1.8-4.8-2.3c-.2,0-.4-.1-.8-.2V1.1s20.6.5,20.7.5Z"/>
    <path class="st1" d="M239.2,36.4c.1-.2-1.5-1.1-4.1-1.9-5.8-1.8-14.8-2-18.7,3.7-9.2,14.5,19.2,31.1,22.3,49.7,4.8,19.9-16.1,35.9-34.5,34.5-11.6-.3-21-8.5-27-17.1,2.4,8.2,12.8,18.6,21.6,21.4,13.6,4.8,30.1.2,39.7-10.7,12.6-14,11.2-35-1.5-48.9-3-3.6-6.5-7-9.6-10.4-3.1-3.6-6.1-6.8-6.9-11.2-.8-4.7,3.3-8.7,8.3-9.3,2.5-.8,9.8.7,10.5.2h0s0,0,0,0Z"/>
    <path class="st1" d="M207.7,39.4c2.6-3.8,7.5-5,8.7-5.3-11.2,4.9-4.3,20.4,9.7,35.5,15.5,16.6,12.3,50.8-22.4,47.9,16.7,1.2,42.3-19.9,14.7-50.4,0,0-10.2-11.2-10.8-15.2l-5.9,22.1h-5.9c0,0-5.3-27.9-5.3-27.9l-12.3,36.2h-6.4l15.7-42.8h5.3l5.3,28.4c3.5-9.5,6.8-24.3,9.6-28.4h0Z"/>
  </g>
  <g id="Layer_1-21" data-name="Layer_1-2">
    <path d="M286.5,49.6v.5c-.6.1-1,.3-1.3.6-.4.4-.8,1.1-1.2,2.1l-5.9,16h-.4s-5.6-16.5-5.6-16.5c-.3-.8-.5-1.4-.6-1.6-.2-.3-.4-.5-.7-.7s-.7-.3-1.2-.3v-.5s6.5.1,6.5.1v.5c-.8,0-1.2.2-1.5.4s-.3.5-.3.8c0,.5.2,1.2.5,2.2l3.8,11.2,4-10.9c.4-1.1.6-1.8.6-2.2,0-.3-.1-.5-.3-.8s-.6-.4-1.1-.6c0,0-.1,0-.2,0v-.5s4.9.1,4.9.1Z"/>
    <path d="M294.7,57.9c0,0-.4-.3-1-.4-1.4-.4-3.5-.5-4.4.9-2.2,3.5,4.6,7.4,5.3,11.8,1.1,4.7-3.8,8.6-8.2,8.2-2.8,0-5-2-6.4-4.1.6,2,3,4.4,5.1,5.1,3.2,1.1,7.2,0,9.4-2.5,3-3.3,2.7-8.4-.4-11.6-.7-.9-1.6-1.7-2.3-2.5-.7-.9-1.4-1.6-1.6-2.7-.2-1.1.8-2.1,2-2.2.6-.2,2.3.2,2.5,0h0s0,0,0,0Z"/>
    <path d="M287.3,58.6c.6-.9,1.8-1.2,2.1-1.3-2.7,1.2-1,4.9,2.3,8.5,3.7,4,2.9,12.1-5.3,11.4,4,.3,10.1-4.7,3.5-12,0,0-2.4-2.7-2.6-3.6l-1.4,5.3h-1.4s-1.3-6.7-1.3-6.7l-2.9,8.6h-1.5l3.7-10.2h1.3l1.3,6.8c.8-2.3,1.6-5.8,2.3-6.8h0Z"/>
  </g>
  <g id="Layer_1-22" data-name="Layer_1-2">
    <path class="st0" d="M70.1,2.3v2.1c-2.4.4-4.2,1.3-5.4,2.5-1.8,1.8-3.4,4.7-4.8,8.6l-24.5,66.2h-1.8S10.4,13.5,10.4,13.5c-1.2-3.5-2-5.6-2.5-6.4-.8-1.2-1.8-2.2-2.9-2.9S2.2,3,.2,2.8V.7s27,.6,27,.6v2.1c-3.1.3-5.1.8-6,1.7s-1.4,2-1.4,3.4c0,1.9.6,5,2,9.1l15.7,46.4,16.6-45c1.6-4.4,2.5-7.5,2.5-9.3,0-1.1-.4-2.2-1.3-3.2s-2.5-1.8-4.7-2.3c-.2,0-.4-.1-.8-.2V1.8s20.4.5,20.4.5Z"/>
    <path class="st0" d="M104.5,36.6c.1-.2-1.5-1.1-4.1-1.9-5.8-1.8-14.6-2-18.4,3.6-9,14.3,18.9,30.7,22,49,4.7,19.7-15.9,35.5-34.1,34-11.5-.3-20.8-8.4-26.7-16.9,2.4,8.1,12.6,18.4,21.3,21.1,13.4,4.7,29.7.2,39.1-10.5,12.4-13.8,11-34.6-1.5-48.2-3-3.5-6.4-6.9-9.5-10.3-3-3.6-6-6.7-6.8-11-.8-4.7,3.2-8.6,8.2-9.2,2.4-.8,9.7.7,10.4.2h0s0,0,0,0Z"/>
    <path class="st0" d="M73.4,39.6c2.6-3.8,7.4-5,8.5-5.2-11.1,4.8-4.3,20.1,9.6,35,15.3,16.4,12.2,50.2-22.1,47.3,16.5,1.2,41.8-19.6,14.5-49.8,0,0-10-11.1-10.7-15l-5.8,21.8h-5.8s-5.2-27.6-5.2-27.6l-12.2,35.7h-6.3l15.5-42.2h5.2l5.2,28c3.5-9.3,6.8-24,9.5-28h0Z"/>
  </g>
</svg>