<?xml version="1.0" encoding="UTF-8"?>
<svg id="Layer_2" data-name="Layer 2" xmlns="http://www.w3.org/2000/svg" viewBox="0 0 32 32">
  <g id="Layer_1-2" data-name="Layer 1-2">
    <path d="M19.35,1.32v.52c-.58.11-1.01.31-1.31.61-.43.45-.81,1.14-1.15,2.07l-5.92,15.99h-.43S4.94,4.03,4.94,4.03c-.29-.84-.49-1.36-.61-1.55-.19-.29-.42-.52-.71-.69s-.67-.28-1.15-.34v-.52s6.52.15,6.52.15v.52c-.75.07-1.23.2-1.46.41s-.34.48-.35.82c0,.46.15,1.2.49,2.19l3.8,11.19,4.01-10.88c.39-1.07.59-1.82.6-2.24,0-.27-.1-.53-.32-.78s-.6-.44-1.14-.55c-.04,0-.1-.03-.2-.05v-.52s4.92.11,4.92.11Z"/>
    <path d="M27.64,9.61c.03-.06-.36-.26-.98-.45-1.39-.44-3.52-.47-4.45.88-2.18,3.46,4.56,7.42,5.32,11.84,1.13,4.75-3.83,8.56-8.23,8.22-2.77-.07-5.01-2.02-6.44-4.07.58,1.95,3.04,4.44,5.14,5.09,3.24,1.13,7.18.06,9.45-2.55,3.01-3.34,2.66-8.35-.35-11.64-.72-.86-1.55-1.66-2.29-2.49-.73-.86-1.44-1.61-1.64-2.66-.2-1.13.78-2.08,1.97-2.22.59-.19,2.34.16,2.51.05h0s0,0,0,0Z"/>
    <path d="M20.15,10.33c.62-.91,1.79-1.2,2.06-1.25-2.67,1.17-1.04,4.86,2.31,8.46,3.69,3.96,2.94,12.11-5.33,11.41,3.97.29,10.08-4.74,3.5-12.02,0,0-2.42-2.67-2.58-3.62l-1.4,5.26h-1.4s-1.26-6.66-1.26-6.66l-2.93,8.62h-1.53l3.74-10.2h1.26l1.26,6.77c.83-2.25,1.63-5.8,2.29-6.77h0Z"/>
  </g>
</svg>