<?xml version="1.0" encoding="UTF-8"?>
<svg id="Layer_2" data-name="Layer 2" xmlns="http://www.w3.org/2000/svg" viewBox="0 0 113.55 128.5">
  <defs>
    <style>
      .cls-1 {
        fill: #6c3375;
      }
    </style>
  </defs>
  <g id="Layer_1-2" data-name="Layer 1-2">
    <path class="cls-1" d="M70.13,2.25l-.05,2.14c-2.35.44-4.14,1.29-5.36,2.54-1.77,1.85-3.36,4.71-4.77,8.57l-24.53,66.22-1.8-.04L10.43,13.51c-1.18-3.49-2.03-5.64-2.53-6.43-.78-1.21-1.76-2.17-2.93-2.87S2.2,3.04.2,2.81l.05-2.14,26.96.61-.05,2.14c-3.06.28-5.05.85-5.98,1.72s-1.41,1.99-1.44,3.38c-.04,1.93.63,4.96,2.03,9.07l15.75,46.36,16.61-45.05c1.63-4.44,2.46-7.52,2.5-9.26.03-1.12-.42-2.2-1.34-3.24s-2.49-1.81-4.72-2.28c-.16-.04-.43-.11-.82-.19l.05-2.14s20.34.46,20.34.46Z"/>
    <path class="cls-1" d="M104.46,36.61c.12-.24-1.47-1.08-4.08-1.86-5.76-1.81-14.59-1.96-18.42,3.63-9.03,14.32,18.91,30.74,22.03,49.03,4.69,19.66-15.86,35.45-34.1,34.04-11.49-.31-20.76-8.37-26.7-16.87,2.4,8.1,12.6,18.39,21.3,21.1,13.43,4.7,29.74.24,39.15-10.54,12.45-13.84,11.04-34.59-1.46-48.24-2.99-3.54-6.43-6.88-9.49-10.3-3.04-3.55-5.98-6.67-6.8-11.01-.83-4.68,3.24-8.6,8.15-9.18,2.44-.77,9.7.65,10.39.22v-.02h.04Z"/>
    <path class="cls-1" d="M73.44,39.59c2.58-3.77,7.42-4.97,8.55-5.19-11.06,4.85-4.29,20.14,9.59,35.04,15.27,16.4,12.18,50.16-22.08,47.27,16.46,1.2,41.76-19.64,14.51-49.8,0,0-10.02-11.06-10.7-14.98l-5.8,21.78-5.81-.05-5.21-27.54-12.15,35.7h-6.34l15.49-42.24h5.23l5.22,28.03c3.46-9.34,6.75-24.03,9.49-28.03h0Z"/>
  </g>
</svg>